<?xml version="1.0" encoding="UTF-8" standalone="no"?><!DOCTYPE svg PUBLIC "-//W3C//DTD SVG 1.1//EN" "http://www.w3.org/Graphics/SVG/1.1/DTD/svg11.dtd"><svg width="100%" height="100%" viewBox="0 0 394 141" version="1.1" xmlns="http://www.w3.org/2000/svg" xmlns:xlink="http://www.w3.org/1999/xlink" xml:space="preserve" xmlns:serif="http://www.serif.com/" style="fill-rule:evenodd;clip-rule:evenodd;stroke-linejoin:round;stroke-miterlimit:2;"><rect id="Completo" x="0" y="0" width="393.18" height="140.55" style="fill:none;"/><clipPath id="_clip1"><rect id="Completo1" serif:id="Completo" x="0" y="0" width="393.18" height="140.55"/></clipPath><g clip-path="url(#_clip1)"><g><g transform="matrix(132.657587,0,0,132.657587,108.588484,117.934242)"><path d="M0.313,0.012c-0.036,0 -0.07,-0.004 -0.1,-0.013c-0.03,-0.009 -0.057,-0.021 -0.08,-0.036c-0.023,-0.015 -0.042,-0.032 -0.057,-0.051c-0.015,-0.019 -0.025,-0.039 -0.031,-0.06l0.113,-0.035c0.009,0.025 0.026,0.047 0.052,0.065c0.025,0.019 0.057,0.028 0.094,0.029c0.043,0 0.077,-0.009 0.103,-0.027c0.026,-0.018 0.038,-0.042 0.038,-0.071c0,-0.026 -0.011,-0.048 -0.032,-0.065c-0.021,-0.017 -0.05,-0.03 -0.087,-0.04l-0.086,-0.022c-0.033,-0.009 -0.062,-0.021 -0.089,-0.038c-0.026,-0.017 -0.047,-0.038 -0.062,-0.063c-0.015,-0.025 -0.022,-0.055 -0.022,-0.089c0,-0.065 0.021,-0.116 0.064,-0.153c0.042,-0.036 0.103,-0.055 0.183,-0.055c0.045,-0 0.084,0.007 0.118,0.021c0.033,0.014 0.061,0.032 0.083,0.056c0.022,0.024 0.038,0.05 0.049,0.081l-0.112,0.036c-0.01,-0.027 -0.027,-0.049 -0.052,-0.066c-0.025,-0.017 -0.055,-0.026 -0.092,-0.026c-0.038,0 -0.068,0.009 -0.09,0.027c-0.022,0.018 -0.033,0.043 -0.033,0.074c0,0.026 0.009,0.046 0.026,0.061c0.017,0.014 0.04,0.025 0.069,0.032l0.086,0.021c0.063,0.015 0.112,0.042 0.146,0.079c0.034,0.037 0.052,0.079 0.052,0.124c0,0.04 -0.01,0.075 -0.029,0.106c-0.019,0.031 -0.048,0.055 -0.085,0.072c-0.037,0.017 -0.083,0.026 -0.138,0.026Z" style="fill:#fff;fill-rule:nonzero;"/></g><g transform="matrix(132.657587,0,0,132.657587,189.150127,117.934242)"><path d="M0.223,0.012c-0.06,0 -0.106,-0.013 -0.139,-0.04c-0.033,-0.027 -0.05,-0.064 -0.05,-0.113c0,-0.052 0.017,-0.092 0.052,-0.119c0.035,-0.027 0.084,-0.041 0.147,-0.041l0.127,0c-0.004,-0.037 -0.015,-0.065 -0.031,-0.085c-0.017,-0.019 -0.041,-0.029 -0.074,-0.029c-0.024,0 -0.045,0.005 -0.063,0.015c-0.018,0.01 -0.033,0.026 -0.046,0.047l-0.098,-0.035c0.011,-0.022 0.025,-0.043 0.043,-0.061c0.018,-0.019 0.04,-0.034 0.067,-0.046c0.027,-0.011 0.059,-0.017 0.097,-0.017c0.049,0 0.09,0.009 0.122,0.028c0.032,0.019 0.057,0.046 0.072,0.081c0.016,0.035 0.024,0.078 0.023,0.128l-0.002,0.274l-0.104,-0l-0.003,-0.061c-0.013,0.024 -0.032,0.042 -0.056,0.054c-0.024,0.013 -0.052,0.019 -0.085,0.019Zm0.015,-0.094c0.024,0 0.046,-0.005 0.065,-0.016c0.019,-0.011 0.034,-0.026 0.044,-0.044c0.011,-0.019 0.016,-0.039 0.016,-0.062l0,-0.009l-0.094,0c-0.045,0 -0.076,0.006 -0.094,0.019c-0.018,0.012 -0.027,0.03 -0.027,0.052c0,0.019 0.008,0.034 0.024,0.045c0.016,0.011 0.038,0.016 0.066,0.016Z" style="fill:#fff;fill-rule:nonzero;"/></g><g transform="matrix(132.657587,0,0,132.657587,258.335552,117.934242)"><path d="M0.296,0.012c-0.051,0 -0.096,-0.011 -0.135,-0.034c-0.039,-0.022 -0.07,-0.053 -0.093,-0.093c-0.022,-0.039 -0.033,-0.085 -0.033,-0.136c0,-0.051 0.011,-0.097 0.033,-0.136c0.022,-0.039 0.053,-0.07 0.092,-0.093c0.039,-0.022 0.084,-0.033 0.134,-0.033c0.05,0 0.094,0.012 0.134,0.036c0.04,0.024 0.069,0.057 0.089,0.101l-0.104,0.04c-0.011,-0.022 -0.028,-0.04 -0.049,-0.053c-0.022,-0.013 -0.047,-0.02 -0.074,-0.02c-0.028,0 -0.052,0.007 -0.073,0.02c-0.021,0.013 -0.038,0.032 -0.05,0.056c-0.012,0.024 -0.018,0.051 -0.018,0.082c0,0.031 0.006,0.058 0.018,0.082c0.012,0.024 0.029,0.042 0.051,0.056c0.022,0.014 0.046,0.02 0.074,0.02c0.028,0 0.053,-0.007 0.074,-0.021c0.022,-0.014 0.038,-0.033 0.049,-0.058l0.104,0.04c-0.019,0.046 -0.049,0.081 -0.089,0.106c-0.04,0.025 -0.085,0.038 -0.135,0.038Z" style="fill:#fff;fill-rule:nonzero;"/></g><g transform="matrix(132.657587,0,0,132.657587,330.147073,117.934242)"><path d="M0.223,0.012c-0.06,0 -0.106,-0.013 -0.139,-0.04c-0.033,-0.027 -0.05,-0.064 -0.05,-0.113c0,-0.052 0.017,-0.092 0.052,-0.119c0.035,-0.027 0.084,-0.041 0.147,-0.041l0.127,0c-0.004,-0.037 -0.015,-0.065 -0.031,-0.085c-0.017,-0.019 -0.041,-0.029 -0.074,-0.029c-0.024,0 -0.045,0.005 -0.063,0.015c-0.018,0.01 -0.033,0.026 -0.046,0.047l-0.098,-0.035c0.011,-0.022 0.025,-0.043 0.043,-0.061c0.018,-0.019 0.04,-0.034 0.067,-0.046c0.027,-0.011 0.059,-0.017 0.097,-0.017c0.049,0 0.09,0.009 0.122,0.028c0.032,0.019 0.057,0.046 0.072,0.081c0.016,0.035 0.024,0.078 0.023,0.128l-0.002,0.274l-0.104,-0l-0.003,-0.061c-0.013,0.024 -0.032,0.042 -0.056,0.054c-0.024,0.013 -0.052,0.019 -0.085,0.019Zm0.015,-0.094c0.024,0 0.046,-0.005 0.065,-0.016c0.019,-0.011 0.034,-0.026 0.044,-0.044c0.011,-0.019 0.016,-0.039 0.016,-0.062l0,-0.009l-0.094,0c-0.045,0 -0.076,0.006 -0.094,0.019c-0.018,0.012 -0.027,0.03 -0.027,0.052c0,0.019 0.008,0.034 0.024,0.045c0.016,0.011 0.038,0.016 0.066,0.016Z" style="fill:#fff;fill-rule:nonzero;"/></g></g><path d="M67.879,128.121c-15.709,3.751 -38.405,3.465 -54.933,0c-13.557,-2.837 -17.346,-16.051 -7.14,-25.42c13.271,-12.186 36.996,-27.457 54.933,-33.512c10.13,-3.427 20.85,1.009 20.85,11.71l0,33.512c0,7.578 -6.341,11.939 -13.709,13.709Z" style="fill:#fff;fill-rule:nonzero;"/><path d="M14.66,12.429c15.709,-3.751 38.405,-3.465 54.933,0c13.557,2.837 17.346,16.051 7.14,25.42c-13.271,12.186 -36.996,27.457 -54.933,33.512c-10.13,3.427 -20.85,-1.009 -20.85,-11.71l0,-33.512c0,-7.578 6.341,-11.939 13.709,-13.709Z" style="fill:#fff;fill-rule:nonzero;"/></g></svg>