<?xml version="1.0" encoding="UTF-8" standalone="no"?>
<!DOCTYPE svg PUBLIC "-//W3C//DTD SVG 1.1//EN" "http://www.w3.org/Graphics/SVG/1.1/DTD/svg11.dtd">
<svg width="100%" height="100%" viewBox="0 0 983 540" version="1.1" xmlns="http://www.w3.org/2000/svg" xmlns:xlink="http://www.w3.org/1999/xlink" xml:space="preserve" xmlns:serif="http://www.serif.com/" style="fill-rule:evenodd;clip-rule:evenodd;stroke-linejoin:round;stroke-miterlimit:2;">
    <rect id="Completo" x="0" y="0" width="393.18" height="140.55" style="fill:none;"/>
    <clipPath id="_clip1">
        <rect id="Completo1" serif:id="Completo" x="0" y="0" width="393.18" height="140.55"/>
    </clipPath>
    <g clip-path="url(#_clip1)">
        <g transform="matrix(1,0,0,1,144.99,95.31)">
            <g transform="matrix(1.904085,0,0,1.904085,-36.401516,22.624242)">
                <g transform="matrix(69.67,0,0,69.67,0,0)">
                    <path d="M0.313,0.012C0.277,0.012 0.243,0.008 0.213,-0.001C0.182,-0.01 0.156,-0.021 0.132,-0.037C0.109,-0.052 0.09,-0.069 0.075,-0.088C0.06,-0.107 0.05,-0.127 0.044,-0.148L0.158,-0.183C0.167,-0.158 0.184,-0.137 0.209,-0.118C0.234,-0.1 0.266,-0.09 0.303,-0.089C0.346,-0.089 0.38,-0.098 0.406,-0.116C0.431,-0.134 0.444,-0.158 0.444,-0.187C0.444,-0.214 0.434,-0.235 0.412,-0.252C0.391,-0.27 0.362,-0.283 0.326,-0.292L0.24,-0.314C0.207,-0.323 0.177,-0.335 0.151,-0.352C0.125,-0.369 0.105,-0.39 0.09,-0.415C0.075,-0.441 0.067,-0.471 0.067,-0.505C0.067,-0.57 0.089,-0.621 0.131,-0.657C0.173,-0.694 0.234,-0.712 0.314,-0.712C0.359,-0.712 0.398,-0.705 0.431,-0.691C0.465,-0.677 0.493,-0.659 0.515,-0.635C0.537,-0.612 0.553,-0.585 0.564,-0.555L0.452,-0.519C0.442,-0.545 0.425,-0.567 0.4,-0.585C0.375,-0.602 0.344,-0.611 0.308,-0.611C0.27,-0.611 0.24,-0.602 0.218,-0.584C0.196,-0.566 0.186,-0.541 0.186,-0.509C0.186,-0.483 0.194,-0.463 0.211,-0.449C0.229,-0.435 0.252,-0.424 0.281,-0.416L0.367,-0.395C0.43,-0.38 0.479,-0.353 0.513,-0.316C0.547,-0.279 0.565,-0.237 0.565,-0.192C0.565,-0.152 0.555,-0.117 0.536,-0.086C0.516,-0.056 0.488,-0.032 0.451,-0.014C0.413,0.003 0.367,0.012 0.313,0.012Z" style="fill:white;fill-rule:nonzero;"/>
                </g>
                <g transform="matrix(69.67,0,0,69.67,42.309903,0)">
                    <path d="M0.223,0.012C0.163,0.012 0.117,-0.001 0.084,-0.028C0.051,-0.055 0.034,-0.093 0.034,-0.141C0.034,-0.193 0.052,-0.233 0.087,-0.26C0.122,-0.287 0.17,-0.301 0.233,-0.301L0.36,-0.301C0.356,-0.338 0.345,-0.366 0.329,-0.385C0.312,-0.404 0.287,-0.414 0.255,-0.414C0.231,-0.414 0.21,-0.409 0.192,-0.399C0.174,-0.389 0.158,-0.373 0.146,-0.352L0.048,-0.388C0.058,-0.41 0.073,-0.43 0.091,-0.449C0.108,-0.468 0.131,-0.483 0.158,-0.495C0.185,-0.506 0.217,-0.512 0.255,-0.512C0.304,-0.512 0.345,-0.503 0.377,-0.484C0.409,-0.465 0.434,-0.437 0.449,-0.402C0.465,-0.367 0.473,-0.324 0.473,-0.274L0.47,-0L0.367,-0L0.364,-0.061C0.35,-0.038 0.332,-0.02 0.308,-0.007C0.285,0.006 0.256,0.012 0.223,0.012ZM0.237,-0.082C0.262,-0.082 0.283,-0.088 0.302,-0.099C0.321,-0.11 0.336,-0.124 0.347,-0.143C0.357,-0.162 0.362,-0.182 0.362,-0.205L0.362,-0.215L0.269,-0.215C0.224,-0.215 0.193,-0.209 0.175,-0.196C0.157,-0.184 0.148,-0.166 0.148,-0.144C0.148,-0.125 0.156,-0.11 0.172,-0.099C0.187,-0.088 0.209,-0.082 0.237,-0.082Z" style="fill:white;fill-rule:nonzero;"/>
                </g>
                <g transform="matrix(69.67,0,0,69.67,78.645168,0)">
                    <path d="M0.296,0.012C0.245,0.012 0.2,0.001 0.16,-0.022C0.121,-0.044 0.09,-0.075 0.068,-0.114C0.045,-0.154 0.034,-0.199 0.034,-0.25C0.034,-0.301 0.045,-0.347 0.067,-0.386C0.089,-0.425 0.12,-0.456 0.159,-0.479C0.198,-0.501 0.243,-0.512 0.294,-0.512C0.343,-0.512 0.388,-0.5 0.428,-0.476C0.468,-0.453 0.497,-0.419 0.517,-0.375L0.413,-0.335C0.402,-0.357 0.386,-0.375 0.364,-0.388C0.342,-0.401 0.317,-0.408 0.289,-0.408C0.262,-0.408 0.237,-0.401 0.216,-0.388C0.195,-0.374 0.178,-0.356 0.166,-0.332C0.154,-0.308 0.148,-0.281 0.148,-0.25C0.148,-0.219 0.154,-0.192 0.166,-0.168C0.179,-0.145 0.196,-0.126 0.217,-0.113C0.239,-0.099 0.264,-0.092 0.291,-0.092C0.319,-0.092 0.344,-0.1 0.366,-0.114C0.388,-0.128 0.404,-0.147 0.415,-0.172L0.519,-0.132C0.5,-0.086 0.47,-0.051 0.431,-0.026C0.391,-0.001 0.346,0.012 0.296,0.012Z" style="fill:white;fill-rule:nonzero;"/>
                </g>
                <g transform="matrix(69.67,0,0,69.67,116.359624,0)">
                    <path d="M0.223,0.012C0.163,0.012 0.117,-0.001 0.084,-0.028C0.051,-0.055 0.034,-0.093 0.034,-0.141C0.034,-0.193 0.052,-0.233 0.087,-0.26C0.122,-0.287 0.17,-0.301 0.233,-0.301L0.36,-0.301C0.356,-0.338 0.345,-0.366 0.329,-0.385C0.312,-0.404 0.287,-0.414 0.255,-0.414C0.231,-0.414 0.21,-0.409 0.192,-0.399C0.174,-0.389 0.158,-0.373 0.146,-0.352L0.048,-0.388C0.058,-0.41 0.073,-0.43 0.091,-0.449C0.108,-0.468 0.131,-0.483 0.158,-0.495C0.185,-0.506 0.217,-0.512 0.255,-0.512C0.304,-0.512 0.345,-0.503 0.377,-0.484C0.409,-0.465 0.434,-0.437 0.449,-0.402C0.465,-0.367 0.473,-0.324 0.473,-0.274L0.47,-0L0.367,-0L0.364,-0.061C0.35,-0.038 0.332,-0.02 0.308,-0.007C0.285,0.006 0.256,0.012 0.223,0.012ZM0.237,-0.082C0.262,-0.082 0.283,-0.088 0.302,-0.099C0.321,-0.11 0.336,-0.124 0.347,-0.143C0.357,-0.162 0.362,-0.182 0.362,-0.205L0.362,-0.215L0.269,-0.215C0.224,-0.215 0.193,-0.209 0.175,-0.196C0.157,-0.184 0.148,-0.166 0.148,-0.144C0.148,-0.125 0.156,-0.11 0.172,-0.099C0.187,-0.088 0.209,-0.082 0.237,-0.082Z" style="fill:white;fill-rule:nonzero;"/>
                </g>
            </g>
        </g>
        <g transform="matrix(1.904085,0,0,1.904085,-167.484768,-63.544078)">
            <path d="M123.61,100.66C115.36,102.63 103.44,102.48 94.76,100.66C87.64,99.17 85.65,92.23 91.01,87.31C97.98,80.91 110.44,72.89 119.86,69.71C125.18,67.91 130.81,70.24 130.81,75.86L130.81,93.46C130.81,97.44 127.48,99.73 123.61,100.66Z" style="fill:white;fill-rule:nonzero;"/>
        </g>
        <g transform="matrix(1.904085,0,0,1.904085,-167.484768,-63.544078)">
            <path d="M95.66,39.9C103.91,37.93 115.83,38.08 124.51,39.9C131.63,41.39 133.62,48.33 128.26,53.25C121.29,59.65 108.83,67.67 99.41,70.85C94.09,72.65 88.46,70.32 88.46,64.7L88.46,47.1C88.46,43.12 91.79,40.83 95.66,39.9Z" style="fill:white;fill-rule:nonzero;"/>
        </g>
    </g>
    <g id="Logo" transform="matrix(1.373417,0,0,3.842049,-165.670838,0)">
        <rect x="443.18" y="0" width="393.18" height="140.55" style="fill:none;"/>
        <clipPath id="_clip2">
            <rect x="443.18" y="0" width="393.18" height="140.55"/>
        </clipPath>
        <g clip-path="url(#_clip2)">
            <g transform="matrix(6.181724,0,0,2.20978,-37.963351,-85.028349)">
                <path d="M123.61,100.66C115.36,102.63 103.44,102.48 94.76,100.66C87.64,99.17 85.65,92.23 91.01,87.31C97.98,80.91 110.44,72.89 119.86,69.71C125.18,67.91 130.81,70.24 130.81,75.86L130.81,93.46C130.81,97.44 127.48,99.73 123.61,100.66Z" style="fill:white;fill-rule:nonzero;"/>
            </g>
            <g transform="matrix(6.181724,0,0,2.20978,-37.963351,-85.028349)">
                <path d="M95.66,39.9C103.91,37.93 115.83,38.08 124.51,39.9C131.63,41.39 133.62,48.33 128.26,53.25C121.29,59.65 108.83,67.67 99.41,70.85C94.09,72.65 88.46,70.32 88.46,64.7L88.46,47.1C88.46,43.12 91.79,40.83 95.66,39.9Z" style="fill:white;fill-rule:nonzero;"/>
            </g>
        </g>
    </g>
</svg>
